# xmcd
#
# Track frame offsets: 
#        150
#        17016
#        34767
#        51033
#        67095
#        86364
#        109490
#        126197
#        144749
#
# Disc length: 2315 seconds
#
# Revision: 0
# Processed by: cddbd v1.5.2PL0 Copyright (c) Steve Scherf et al.
# Submitted via: ExactAudioCopy v1.0b4
#
DISCID=7d090909
DTITLE=John Mayall - No More Interviews  (LP)
DYEAR=1979
DGENRE=Blues
TTITLE0=Hard Going Up
TTITLE1=A Bigger Slice Of Pie
TTITLE2=Falling
TTITLE3=Take Me Home Tonight
TTITLE4=Sweet Honey Bee
TTITLE5=Stars In The Night
TTITLE6=Consideration
TTITLE7=Gypsy Lady
TTITLE8=Wild New Lover
EXTD=
EXTT0=
EXTT1=
EXTT2=
EXTT3=
EXTT4=
EXTT5=
EXTT6=
EXTT7=
EXTT8=
PLAYORDER=
